# xmcd
#
# Track frame offsets:
#	150
#	14040
#	28872
#	42372
#	56240
#	81505
#	100597
#	113962
#	132135
#	146117
#	164317
#	180867
#	195445
#	212507
#
# Disc length: 3040 seconds
#
# Revision: 2
# Processed by: cddbd v1.5.2PL0 Copyright (c) Steve Scherf et al.
# Submitted via: EasyCDDAExtractor 11.1.0.1
#
DISCID=c20bde0e
DTITLE=Various Artist - Mr. Music Country 3-98
DYEAR=1900
DGENRE=Country
TTITLE0=Waylon Jenning - Cactus Texas
TTITLE1=Donna Love - Don't Cross My Heart
TTITLE2=Dale Watson - All She Has To Do Is To Cry
TTITLE3=Erika Stolt - All the World I See Is Blue
TTITLE4=Kimmie Rhodes and Willie Nelson - I Never Heard You Say
TTITLE5=Dick Damron - Ain't No Trains to Nashville
TTITLE6=Linda Gravelle - Why Can't They Send 'Em All
TTITLE7=Kimmie Rhodes and Willie Nelson - Just One Love
TTITLE8=Shane Worley - White Lies
TTITLE9=Gretchen Peters - This Uncivil War
TTITLE10=Kris Kristofferson - Slouching toward the Millenium
TTITLE11=Carla Rugg - You're Still Gone
TTITLE12=River Band - Old Heart
TTITLE13=Billy Joe Shaver - Highway of Life
EXTD=
EXTT0=
EXTT1=
EXTT2=
EXTT3=
EXTT4=
EXTT5=
EXTT6=
EXTT7=
EXTT8=
EXTT9=
EXTT10=
EXTT11=
EXTT12=
EXTT13=
PLAYORDER=
